<svg id="Layer_1" data-name="Layer 1" xmlns="http://www.w3.org/2000/svg" viewBox="0 0 135 84.54">
  <defs>
    <style>
      .cls-1 {
        fill: #50bdae;
      }

      .cls-2 {
        fill: #fefefe;
      }
    </style>
  </defs>
  <title>cloud-10</title>
  <g>
    <path class="cls-1" d="M234.3,314a25.4,25.4,0,0,1,9-16.08,24.81,24.81,0,0,1,14.55-5.81c2.35-.1,3.44-1,4.51-3,5.07-9.58,13.21-14.22,24-13.82,2.22,0.08,3.2-.66,4.4-2.24,9.68-12.69,23-17.33,37.36-13.1,13.45,4,22.4,15.54,23.75,30.7,0.11,1.27-.28,2.7,1.36,3.41A25.62,25.62,0,0,1,365,304.42c7.8,12.88,3.76,30.62-10.45,36.89a23.35,23.35,0,0,1-9.72,1.71q-41.88,0-83.76,0c-6.92,0-14.46-1-19.68-6C235.32,331.16,233,322.3,234.3,314Z" transform="translate(-233.95 -258.47)"/>
    <path class="cls-2" d="M301.51,334c-14.17,0-28.33.12-42.5-.05A16.61,16.61,0,0,1,243,320a16.82,16.82,0,0,1,10.66-18.38c3.09-1.21,6.26-1,9.38-.67,2.79,0.27,4.39-.52,5.07-3.33,2.54-10.45,12-16.24,22.65-12.93,3.29,1,4-1.66,5-3.57,5.06-9,12.46-14.18,23-14.1,13.47,0.1,24.64,11.18,24.26,24.62-0.15,5.4.51,8.6,6.54,10.45,7.9,2.42,11.73,10.44,10.29,18.39A16.69,16.69,0,0,1,343.51,334C329.51,334.1,315.51,334,301.51,334Z" transform="translate(-233.95 -258.47)"/>
  </g>
</svg>
