<?xml version="1.0" encoding="UTF-8" standalone="no"?>
<svg width="462px" height="94px" viewBox="0 0 462 94" version="1.1" xmlns="http://www.w3.org/2000/svg" xmlns:xlink="http://www.w3.org/1999/xlink">
    <!-- Generator: Sketch 3.8.1 (29687) - http://www.bohemiancoding.com/sketch -->
    <title>Logo</title>
    <desc>Created with Sketch.</desc>
    <defs>
        <path d="M80.4321942,42.2923644 L80.5019776,42.171496 L8.73599013,0.85321602 L8.68756245,0.908108841 C7.8054974,0.333804782 6.75172603,0 5.61979167,0 C2.51606643,0 0,2.50966989 0,5.60550459 C0,5.75058884 0.00552595241,5.89438572 0.0163793728,6.03669725 L0,6.03669725 L0,87.9633028 L0.0163793728,87.9633028 C0.00552595241,88.1056143 0,88.2494112 0,88.3944954 C0,91.4903301 2.51606643,94 5.61979167,94 C6.75574723,94 7.81298346,93.6638193 8.69695656,93.0857614 L8.73680518,93.1466364 L79.4284137,52.2215602 C81.5192615,51.4049498 83,49.3749578 83,47 C83,45.0264948 81.9775475,43.291189 80.4321942,42.2923644 Z" id="path-1"></path>
        <linearGradient x1="50%" y1="24.4565217%" x2="50%" y2="100%" id="linearGradient-3">
            <stop stop-color="#00C4FF" offset="0%"></stop>
            <stop stop-color="#00E2FF" offset="100%"></stop>
        </linearGradient>
        <linearGradient x1="100%" y1="46.3655074%" x2="-1.30208333%" y2="46.3655084%" id="linearGradient-4">
            <stop stop-color="#FFF000" offset="0%"></stop>
            <stop stop-color="#FFBD00" offset="100%"></stop>
        </linearGradient>
        <linearGradient x1="116.814993%" y1="18.0084746%" x2="25.3023396%" y2="91.5254237%" id="linearGradient-5">
            <stop stop-color="#FF3A40" offset="0%"></stop>
            <stop stop-color="#E22751" offset="100%"></stop>
        </linearGradient>
        <linearGradient x1="52.7383162%" y1="3.33333333%" x2="108.379659%" y2="74.1666667%" id="linearGradient-6">
            <stop stop-color="#00D870" offset="0%"></stop>
            <stop stop-color="#00F070" offset="100%"></stop>
        </linearGradient>
    </defs>
    <g id="Page-1" stroke="none" stroke-width="1" fill="none" fill-rule="evenodd">
        <g id="google-play-logo">
            <g id="Logo">
                <g>
                    <mask id="mask-2" fill="white">
                        <use xlink:href="#path-1"></use>
                    </mask>
                    <use id="Mask" fill="#D8D8D8" xlink:href="#path-1"></use>
                    <polygon id="Shape" fill="url(#linearGradient-3)" mask="url(#mask-2)" points="5.951258e-15 97.4495413 53.6041667 50.0183486 0 -1.72477064"></polygon>
                    <polygon id="Shape" fill="url(#linearGradient-4)" mask="url(#mask-2)" points="65.7083333 28.4587156 87.3229167 38.4212168 88.1875 48.7698407 63.1145833 63.4303911 47.5520833 48.293578"></polygon>
                    <polygon id="Shape" fill="url(#linearGradient-5)" mask="url(#mask-2)" points="-1.72916667 96.1579056 19.4550722 98.3119266 68.7363222 82.7889908 69.6009056 68.9908257 64.4134056 64.6788991 47.5520833 48.293578"></polygon>
                    <polygon id="Shape" fill="url(#linearGradient-6)" mask="url(#mask-2)" points="47.5520833 48.293578 67.0098067 27.160551 16.4270833 -4.31192661 1.72916667 -3.44954128 0 0.862385321"></polygon>
                </g>
                <path d="M252.21,85.27 C250.23835,83.3551692 248.605255,81.12023 247.38,78.66 L254.38,75.66 C254.942566,76.8538108 255.66228,77.9670138 256.52,78.97 C258.318174,81.034027 260.9127,82.2312207 263.65,82.26 C266.526151,82.2891549 269.258354,81.0040625 271.07,78.77 C272.486306,76.6031596 273.185924,74.0460553 273.07,71.46 L273.07,68.72 C268.07,75.16 257.07,74.26 250.98,67.6 C244.433358,60.2268308 244.489389,49.1068226 251.11,41.8 C257.65,35.32 267.34,34.51 273.05,40.64 L273.05,40.64 L273.05,37.54 L280.65,37.54 L280.65,70.54 C280.65,78.95 277.56,83.7 273.73,86.47 C270.709631,88.4742302 267.154511,89.5198537 263.53,89.47 C259.366906,89.5192459 255.333485,88.0227471 252.21,85.27 L252.21,85.27 L252.21,85.27 Z M434.4,87.09 L434.4,87.09 L441.74,69.7 L428.74,39.56 L436.14,39.56 L445.4,61.03 L454.46,39.56 L461.86,39.56 L441.8,87.09 L434.4,87.09 L434.4,87.09 Z M399.27,70.49 L399.27,70.49 C397.185115,68.3198834 396.017434,65.4293349 396.01,62.42 C395.959088,59.7982499 396.922818,57.2581574 398.7,55.33 C401.7,52.14 406.16,50.78 410.86,50.78 C413.588001,50.6941116 416.291957,51.314127 418.71,52.58 C418.71,47.27 414.56,45.23 411.04,45.23 C407.880503,45.0975952 404.983394,46.9795128 403.82,49.92 L397.18,47.27 C398.36,44.06 402.08,38.57 410.88,38.57 C415.098626,38.4625411 419.180185,40.0720683 422.19,43.03 C424.96,45.98 425.89,49.65 425.89,54.53 L425.89,72.77 L418.64,72.77 L418.64,69.51 C417.54013,70.8266376 416.177804,71.8994693 414.64,72.66 C412.733865,73.5180153 410.659786,73.9382982 408.57,73.89 C405.150014,73.971438 401.822811,72.7732169 399.24,70.53 L399.24,70.53 L399.27,70.49 Z M167.35,54.83 L167.35,54.83 C167.35,46.13 173.97,36.54 185.46,36.54 C196.95,36.54 203.57,46.12 203.57,54.82 C203.57,63.52 196.95,73.11 185.46,73.11 C173.97,73.11 167.35,63.53 167.35,54.83 L167.35,54.83 L167.35,54.83 Z M206.66,54.83 L206.66,54.83 C206.66,46.13 213.28,36.54 224.77,36.54 C236.26,36.54 242.88,46.12 242.88,54.82 C242.88,63.52 236.26,73.11 224.77,73.11 C213.28,73.11 206.66,63.53 206.66,54.83 L206.66,54.83 L206.66,54.83 Z M118.3,64.44 L118.3,64.44 C107.660359,53.4247439 107.717975,35.9429626 118.429991,24.9980765 C129.142007,14.0531904 146.618508,13.6196791 157.86,24.02 L152.43,29.68 C148.670496,26.0097381 143.604659,23.9869161 138.351126,24.0582141 C133.097593,24.129512 128.088516,26.2890649 124.43,30.06 C116.585966,38.1330655 116.502162,50.9550922 124.24,59.13 C132.07,67.19 145.06,67.66 152.89,59.6 C155.54,56.88 156.44,53.4 156.98,49.84 L138.58,49.84 L138.58,42.07 L164.39,42.07 C164.717256,44.0222878 164.861216,46.0009028 164.82,47.98 C164.754963,54.4948909 162.258434,60.7504787 157.82,65.52 C152.814081,70.5078569 145.984414,73.2288829 138.92,73.05 C131.196027,72.9818085 123.806914,69.8868547 118.34,64.43 L118.34,64.43 L118.3,64.44 Z M302.14,67.7 L302.14,67.7 C295.691845,60.2668853 295.691845,49.2231147 302.14,41.79 C305.156626,38.4116417 309.470835,36.4801086 314,36.4801086 C318.529165,36.4801086 322.843374,38.4116417 325.86,41.79 C327.887653,44.2976359 329.461338,47.1404226 330.51,50.19 L306.37,60.27 C307.884984,63.653082 311.243199,65.833182 314.95,65.84 C318.71,65.84 321.27,64.58 323.95,60.75 L330.27,65 L330.27,65 C329.54,66 328.65,66.91 327.97,67.65 C321.52,74.77 308.57,74.77 302.12,67.65 L302.12,67.65 L302.14,67.7 Z M347.49,72.81 L347.49,72.81 L347.49,24.67 L362.98,24.67 C372.31,24.67 379.36,31.2 379.36,39.25 C379.255718,47.4035794 372.563633,53.9300415 364.41,53.83 L354.83,53.83 L354.83,72.83 L347.49,72.83 L347.49,72.81 Z M384.16,72.81 L384.16,72.81 L384.16,24.67 L391.5,24.67 L391.5,72.81 L384.16,72.81 L384.16,72.81 Z M285.86,72.03 L285.86,72.03 L285.86,18.16 L293.86,18.16 L293.86,72.03 L285.86,72.03 L285.86,72.03 Z M418.66,58.7 L418.66,58.7 C416.56282,57.4789424 414.165725,56.8692767 411.74,56.94 C406.52,56.94 403.57,59.58 403.57,62.47 C403.57,65.69 406.65,67.29 409.57,67.29 C413.76,67.29 418.69,63.8 418.69,58.71 L418.69,58.71 L418.66,58.7 Z M195.56,54.84 L195.56,54.84 C195.56,49.59 191.87,43.84 185.45,43.84 C179.03,43.84 175.34,49.62 175.34,54.84 C175.34,60.06 179.03,65.84 185.45,65.84 C191.87,65.84 195.56,60.05 195.56,54.84 L195.56,54.84 L195.56,54.84 Z M234.86,54.84 L234.86,54.84 C234.86,49.59 231.17,43.84 224.75,43.84 C218.33,43.84 214.64,49.62 214.64,54.84 C214.64,60.06 218.33,65.84 224.75,65.84 C231.17,65.84 234.86,60.05 234.86,54.84 L234.86,54.84 L234.86,54.84 Z M273.27,58.16 L273.27,58.16 C273.395166,57.7335197 273.492043,57.2992423 273.56,56.86 C273.570115,56.8037847 273.570115,56.7462153 273.56,56.69 C273.764836,55.4450359 273.764836,54.1749641 273.56,52.93 C273.568846,52.8535885 273.568846,52.7764115 273.56,52.7 C273.470189,52.1492113 273.333013,51.6072005 273.15,51.08 C271.78,46.82 268.15,43.8 263.87,43.83 C258.45,43.83 254.09,48.83 254.13,54.91 C254.17,60.99 258.6,65.91 264.01,65.83 C268.28,65.83 271.89,62.71 273.29,58.16 L273.29,58.16 L273.27,58.16 Z M305.12,54.16 L305.12,54.16 L321.23,47.33 C319.875976,44.9355054 317.309794,43.4850547 314.56,43.56 C308.43,43.56 304.23,50.56 305.12,54.17 L305.12,54.17 L305.12,54.16 Z M371.86,39.4 L371.86,39.4 C371.86,35.2 368.56,31.78 363.65,31.78 L354.83,31.78 L354.83,47.01 L364.07,47.01 C366.111285,47.039372 368.080476,46.2558578 369.543594,44.832132 C371.006711,43.4084062 371.843664,41.4613266 371.87,39.42 L371.86,39.4 Z" id="Shape" fill-opacity="0.75" fill="#5A5A5A"></path>
            </g>
        </g>
    </g>
</svg>