<?xml version="1.0" encoding="utf-8"?>
<!-- Generator: Adobe Illustrator 20.0.0, SVG Export Plug-In . SVG Version: 6.00 Build 0)  -->
<svg version="1.1" id="Layer_1" xmlns="http://www.w3.org/2000/svg" xmlns:xlink="http://www.w3.org/1999/xlink" x="0px" y="0px"
	 viewBox="0 0 13 13" style="enable-background:new 0 0 13 13;" xml:space="preserve">
<style type="text/css">
	.st0{fill:#FFFFFF;}
</style>
<title>512px-Pencil_font_awesome.svg</title>
<desc>Created with Sketch.</desc>
<g id="Education-Resources---Settings-Page">
	<g id="Doctor---Settings---Patient-Education-Materials" transform="translate(-767.000000, -214.000000)">
		<g id="Accordion" transform="translate(462.000000, 201.000000)">
			<g id="Item-1">
				<g id="Pencil" transform="translate(301.000000, 10.000000)">
					<g id="_x35_12px-Pencil_x5F_font_x5F_awesome.svg">
						<g>
							<path class="st0" d="M4.2,15.9c0-0.1,0-0.1,0-0.2c0-1.1,0-2.1,0-3.2c0-0.1,0-0.2,0.1-0.2C6.5,10,8.8,7.8,11,5.5
								c0,0,0.1-0.1,0.1-0.1c1.2,1.2,2.3,2.3,3.5,3.5c0,0-0.1,0.1-0.1,0.1c-2.2,2.2-4.5,4.5-6.7,6.7c-0.1,0.1-0.1,0.1-0.3,0.1
								c-1.1,0-2.1,0-3.2,0C4.3,15.9,4.2,15.9,4.2,15.9z M8,14.1c-0.7-0.7-1.3-1.3-2-2c-0.2,0.2-0.4,0.4-0.6,0.6
								c-0.1,0.1-0.2,0.2-0.2,0.4c0,0.2,0,0.4,0,0.7c0.4,0,0.7,0,1.1,0c0,0.4,0,0.7,0,1.1c0.3,0,0.6,0,0.8,0c0,0,0.1,0,0.1,0
								C7.5,14.5,7.7,14.3,8,14.1z M11.6,7.1c0-0.1-0.1-0.2-0.2-0.2c-0.1,0-0.2,0-0.2,0.1c-0.5,0.5-1,1-1.5,1.4c-1,1-2,2-3,3
								c-0.1,0.1-0.2,0.3-0.1,0.4c0.1,0.1,0.2,0.1,0.4-0.1c0.2-0.2,0.3-0.3,0.5-0.5c1.3-1.3,2.6-2.6,3.9-3.9
								C11.5,7.2,11.6,7.1,11.6,7.1z"/>
							<path class="st0" d="M11.7,4.9c0.5-0.5,0.9-1,1.4-1.5c0.4-0.4,1-0.3,1.4,0.1c0.3,0.3,0.7,0.7,1,1c0.3,0.3,0.6,0.6,0.9,0.9
								C17,5.9,17,6.6,16.5,7c-0.4,0.4-0.8,0.8-1.3,1.3c0,0-0.1,0.1-0.1,0.1C14,7.2,12.9,6,11.7,4.9z"/>
							<path class="st0" d="M8,14.1c-0.2,0.2-0.5,0.5-0.7,0.7c0,0-0.1,0-0.1,0c-0.3,0-0.5,0-0.8,0c0-0.4,0-0.7,0-1.1
								c-0.4,0-0.7,0-1.1,0c0-0.2,0-0.4,0-0.7c0-0.2,0-0.3,0.2-0.4c0.2-0.2,0.4-0.4,0.6-0.6C6.6,12.8,7.3,13.4,8,14.1z"/>
							<path class="st0" d="M11.6,7.1c0,0-0.1,0.1-0.1,0.2c-1.3,1.3-2.6,2.6-3.9,3.9c-0.2,0.2-0.3,0.3-0.5,0.5
								c-0.2,0.2-0.3,0.2-0.4,0.1c-0.1-0.1,0-0.2,0.1-0.4c1-1,2-2,3-3c0.5-0.5,1-1,1.5-1.4c0.1-0.1,0.1-0.1,0.2-0.1
								C11.5,6.8,11.6,6.9,11.6,7.1z"/>
						</g>
					</g>
				</g>
			</g>
		</g>
	</g>
</g>
</svg>
