<?xml version="1.0" encoding="utf-8"?>
<!-- Generator: Adobe Illustrator 20.0.0, SVG Export Plug-In . SVG Version: 6.00 Build 0)  -->
<svg version="1.1" id="Layer_1" xmlns="http://www.w3.org/2000/svg" xmlns:xlink="http://www.w3.org/1999/xlink" x="0px" y="0px"
	 viewBox="0 0 22 22" style="enable-background:new 0 0 22 22;" xml:space="preserve">
<style type="text/css">
	.st0{fill:#41B6A6;}
</style>
<title>arrows-alt</title>
<desc>Created with Sketch.</desc>
<g id="Imaging-Results">
	
		<g id="Doctor---Labs-and-Imaging---Landing-Page---Imaging---Add-New-Results-Modal" transform="translate(-802.000000, -603.000000)">
		<g id="arrows-alt" transform="translate(802.000000, 603.000000)">
			<g id="Rectangle-79">
				<g id="path-1_1_">
					<path class="st0" d="M19,1c1.1,0,2,0.9,2,2v16c0,1.1-0.9,2-2,2H3c-1.1,0-2-0.9-2-2V3c0-1.1,0.9-2,2-2H19 M19,0H3
						C1.3,0,0,1.3,0,3v16c0,1.7,1.3,3,3,3h16c1.7,0,3-1.3,3-3V3C22,1.3,20.7,0,19,0L19,0z"/>
				</g>
			</g>
			<path id="Shape" class="st0" d="M16.3,7.3L12.6,11l3.7,3.7l1.5-1.5c0.2-0.2,0.4-0.3,0.7-0.2c0.3,0.1,0.4,0.4,0.4,0.6v4.6
				c0,0.2-0.1,0.4-0.2,0.4c-0.1,0.1-0.4,0.3-0.6,0.3h-4.6c-0.3,0-0.5-0.2-0.6-0.4c-0.1-0.3-0.1-0.5,0.2-0.7l1.5-1.5L11,12.7
				l-3.7,3.6l1.5,1.5C8.9,18,9,18.3,8.9,18.5C8.8,18.8,8.6,19,8.3,19H3.7c-0.2,0-0.4-0.1-0.4-0.2C3.1,18.7,3,18.5,3,18.3v-4.6
				c0-0.3,0.2-0.5,0.4-0.6C3.7,13,3.9,13,4.1,13.2l1.5,1.5L9.3,11L5.6,7.3L4.1,8.8C3.9,9,3.9,9,3.7,9C3.6,9,3.5,9,3.4,9
				C3.1,8.9,3,8.6,3,8.3V3.7c0-0.2,0.1-0.4,0.2-0.4C3.2,3.2,3.4,3,3.7,3h4.6c0.3,0,0.5,0.2,0.6,0.4C9,3.7,9,3.9,8.7,4.2L7.2,5.7
				L11,9.3l3.7-3.6l-1.5-1.5C13,4,12.9,3.7,13,3.5S13.4,3,13.6,3h4.6c0.2,0,0.4,0.1,0.4,0.2s0.3,0.3,0.3,0.5v4.6
				c0,0.3-0.2,0.5-0.4,0.6C18.4,9,18.3,9,18.2,9c-0.2,0-0.4-0.1-0.4-0.2L16.3,7.3z"/>
		</g>
	</g>
</g>
</svg>
