<svg xmlns="http://www.w3.org/2000/svg" viewBox="0 0 288 288"><defs><style>.cls-1,.cls-4{fill:#0b958e;}.cls-1,.cls-2{isolation:isolate;}.cls-2{fill:#097772;}.cls-3{fill:#fefefe;}</style></defs><title>Asset 1</title><g id="Layer_2" data-name="Layer 2"><g id="Layer_1-2" data-name="Layer 1"><circle class="cls-1" cx="144" cy="144" r="144"/><path class="cls-2" d="M285.75,169.49,212.84,95.62l-16.56,8.84-21.1-20.93-10,8H135.56l-11.73,1.67L118,133l13.52,13L59.61,181.79l17.85,16.77-18.29,8.66,81,80.73q1.93.05,3.87.05A144,144,0,0,0,285.75,169.49Z"/><circle class="cls-3" cx="64.3" cy="202.03" r="7.3"/><circle class="cls-3" cx="186.63" cy="125.86" r="7.3"/><circle class="cls-3" cx="222.8" cy="122.19" r="7.3"/><circle class="cls-3" cx="201.13" cy="104.72" r="14.83"/><circle class="cls-3" cx="64.3" cy="176.19" r="7.3"/><path class="cls-3" d="M152,108l23.83-23.83A16.87,16.87,0,1,0,152,108Z"/><path class="cls-3" d="M129.22,93.59H165.1v-7.7H129.71A11.71,11.71,0,0,0,118,97.6V133h7.33V97.48A3.9,3.9,0,0,1,129.22,93.59Z"/><path class="cls-3" d="M181.39,120.78l-19.5,19.5H118.41a8.33,8.33,0,0,0-3.91,1L61.55,169.43,66.9,183l52.92-28h45.24a7.3,7.3,0,0,0,2.85-.58,7.52,7.52,0,0,0,2.4-1.64c1.56-1.55,9.9-10,21.27-21.61Z"/><path class="cls-3" d="M217.56,117.11l-44.71,44.8H126.61a15.47,15.47,0,0,0-7.42,1.89L60,196.17l7.48,12.45,53.73-29.06,33.79,14.35a6.29,6.29,0,0,0,6.87-1.31L228,127.36Z"/><path class="cls-4" d="M330.33,236.39"/></g></g></svg>