<svg id="Layer_1" data-name="Layer 1" xmlns="http://www.w3.org/2000/svg" viewBox="0 0 129.17 201.17">
  <defs>
    <style>
      .cls-1 {
        fill: #fefefe;
      }

      .cls-2 {
        fill: #50bdae;
      }

      .cls-3 {
        fill: #51beaf;
      }

      .cls-4 {
        fill: #50beaf;
      }

      .cls-5 {
        fill: #fdfefe;
      }

      .cls-6 {
        fill: #fbfdfc;
      }

      .cls-7 {
        fill: #f7fbfb;
      }

      .cls-8 {
        fill: #fafdfc;
      }
    </style>
  </defs>
  <title>icon</title>
  <g>
    <path class="cls-1" d="M237,300c0-32.17.05-64.33-.08-96.5,0-3,.6-3.59,3.58-3.58q61,0.19,122,0c3,0,3.59.6,3.58,3.58q-0.16,97,0,194c0,3-.6,3.59-3.58,3.58q-61-.19-122,0c-3,0-3.6-.6-3.59-3.58C237.05,365,237,332.5,237,300Z" transform="translate(-236.92 -199.92)"/>
    <path class="cls-2" d="M250.62,389.95H351.49c0.28-2.31-1.39-3.72-2.35-5.34q-14-23.62-28.28-47.12a17.73,17.73,0,0,1-2.79-9.85c0.17-13.16.15-26.33,0-39.5,0-4.39,1.52-6.57,6.13-6.33,3.49,0.18,7,0,10.5.08,2.51,0.06,4.17,1.39,4.21,4s-1.56,3.84-4.07,4.16c-2.12.27-5.58-1.22-7.36,0.69-2,2.12-.9,6.14-0.83,8.75,0.22,8.23-1.08,16.42,0,24.63s4.66,15.55,9.12,22.3c9.45,14.3,17.81,29.32,26.59,44.05,3.16,5.31,1.59,8.31-4.55,8.32q-56.25.1-112.5,0c-6.39,0-7.86-3-4.48-8.64,10.77-18,21.49-36.05,32.41-54a19.92,19.92,0,0,0,3.1-11.27c-0.2-10.16-.15-20.33,0-30.5,0-3-.5-4.61-4-4.44-3.25.16-8.08,1.31-8.06-4,0-5.64,5.08-4.05,8.44-4.11,12.78-.19,12.3-1,12.22,12.12-0.06,10.83-.15,21.67.06,32.5a20.72,20.72,0,0,1-3.22,11.74C271.39,355.13,261.29,372.16,250.62,389.95Z" transform="translate(-236.92 -199.92)"/>
    <path class="cls-2" d="M301,382c-8.83,0-17.67.06-26.5,0-5.93-.06-7.55-2.82-4.55-7.92q9.88-16.79,20-33.42c2.07-3.37,3.56-6.68,3.1-10.74s1.34-6.37,5.64-6.32c2,0,4,.05,6,0.06,3.83,0,5.56,2.1,5.14,5.73-0.53,4.62,1.29,8.31,3.63,12.09,6.56,10.62,12.94,21.36,19.29,32.12,3.39,5.75,1.87,8.37-4.77,8.4C319,382,310,382,301,382Z" transform="translate(-236.92 -199.92)"/>
    <path class="cls-3" d="M347.22,215.07c-0.05,7.12-5.1,12.14-12.25,12.16a12.47,12.47,0,0,1-12.69-12.49,13.13,13.13,0,0,1,12.53-12.45A12.49,12.49,0,0,1,347.22,215.07Z" transform="translate(-236.92 -199.92)"/>
    <path class="cls-4" d="M301.28,244.06A12.43,12.43,0,0,1,289,231.14a12.5,12.5,0,0,1,25,.44A12.42,12.42,0,0,1,301.28,244.06Z" transform="translate(-236.92 -199.92)"/>
    <path class="cls-4" d="M318,277.31c-7.12-.08-12.17-5.24-12.13-12.39a11.93,11.93,0,0,1,12.33-12.21A12.31,12.31,0,1,1,318,277.31Z" transform="translate(-236.92 -199.92)"/>
    <path class="cls-5" d="M280,373.48l21.51-35.85L323,373.48H280Z" transform="translate(-236.92 -199.92)"/>
    <path class="cls-6" d="M339,214.71c-0.14,2.52-1.4,4.17-4,4.22a3.69,3.69,0,0,1-4.1-4,3.62,3.62,0,0,1,3.62-4C337.12,210.77,338.56,212.21,339,214.71Z" transform="translate(-236.92 -199.92)"/>
    <path class="cls-7" d="M305.73,231.46c-0.3,2.36-1.58,4.09-4,4.26a3.93,3.93,0,0,1-4.34-3.87c-0.21-2.51,1.44-4.1,3.9-4.25S305.22,229,305.73,231.46Z" transform="translate(-236.92 -199.92)"/>
    <path class="cls-8" d="M322.18,264.76c-0.12,2.58-1.38,4.19-4,4.24a4,4,0,0,1-.42-8C320.36,260.83,321.78,262.28,322.18,264.76Z" transform="translate(-236.92 -199.92)"/>
  </g>
</svg>
