<svg id="Layer_1" data-name="Layer 1" xmlns="http://www.w3.org/2000/svg" viewBox="0 0 49.75 64.33">
  <defs>
    <style>
      .cls-1 {
        fill: #4fbeaf;
      }

      .cls-2 {
        fill: #fff;
      }
    </style>
  </defs>
  <title>trash_recyclebin_empty_closed copy</title>
  <g>
    <path class="cls-1" d="M4.94,15.21H44.81a0,0,0,0,1,0,0V58.33a6,6,0,0,1-6,6H10.94a6,6,0,0,1-6-6V15.21A0,0,0,0,1,4.94,15.21Z"/>
    <rect class="cls-2" x="11.13" y="21.08" width="5" height="36.25" rx="2.5" ry="2.5"/>
    <rect class="cls-2" x="22.37" y="21.08" width="5" height="36.25" rx="2.5" ry="2.5"/>
    <rect class="cls-2" x="33.63" y="21.08" width="5" height="36.25" rx="2.5" ry="2.5"/>
    <path class="cls-1" d="M8,5.33H41.75a8,8,0,0,1,8,8v0a0,0,0,0,1,0,0H0a0,0,0,0,1,0,0v0A8,8,0,0,1,8,5.33Z"/>
    <path class="cls-1" d="M21.67,0h6.42a4,4,0,0,1,4,4V4a0,0,0,0,1,0,0H17.67a0,0,0,0,1,0,0V4A4,4,0,0,1,21.67,0Z"/>
  </g>
</svg>
